<svg width="420" height="360" viewBox="0 0 420 360" fill="none" xmlns="http://www.w3.org/2000/svg">
  <rect width="420" height="360" rx="48" fill="url(#bg)"/>
  <g filter="url(#shadow)">
    <path d="M120 260C120 210 160 120 210 120C260 120 300 210 300 260C300 310 260 320 210 320C160 320 120 310 120 260Z" fill="#FFB07B"/>
    <path d="M160 248C160 222 178 190 210 190C242 190 260 222 260 248C260 274 242 292 210 292C178 292 160 274 160 248Z" fill="white" opacity="0.9"/>
    <path d="M210 220C230 220 246 208 246 194C246 172 228 150 210 150C192 150 174 172 174 194C174 208 190 220 210 220Z" fill="#FF9559"/>
    <ellipse cx="190" cy="206" rx="12" ry="14" fill="#2D2220"/>
    <ellipse cx="230" cy="206" rx="12" ry="14" fill="#2D2220"/>
    <circle cx="190" cy="202" r="4" fill="white"/>
    <circle cx="230" cy="202" r="4" fill="white"/>
    <path d="M210 224C202 224 194 230 194 238C194 246 202 252 210 252C218 252 226 246 226 238C226 230 218 224 210 224Z" fill="#2D2220"/>
    <path d="M180 150L134 132C116 126 102 108 102 88V76C126 84 158 110 180 150Z" fill="#FF9559"/>
    <path d="M240 150L286 132C304 126 318 108 318 88V76C294 84 262 110 240 150Z" fill="#FF9559"/>
    <path d="M130 268C160 282 190 290 210 290C230 290 260 282 290 268" stroke="#F7744A" stroke-width="14" stroke-linecap="round"/>
  </g>
  <g opacity="0.7">
    <ellipse cx="110" cy="310" rx="36" ry="20" fill="#5DAA72"/>
    <ellipse cx="310" cy="310" rx="42" ry="18" fill="#5DAA72"/>
    <ellipse cx="210" cy="320" rx="90" ry="22" fill="#5DAA72"/>
  </g>
  <defs>
    <linearGradient id="bg" x1="210" y1="0" x2="210" y2="360" gradientUnits="userSpaceOnUse">
      <stop stop-color="#FFF4EA"/>
      <stop offset="1" stop-color="#FFE7D1"/>
    </linearGradient>
    <filter id="shadow" x="60" y="40" width="300" height="300" filterUnits="userSpaceOnUse" color-interpolation-filters="sRGB">
      <feOffset dy="8"/>
      <feGaussianBlur stdDeviation="12" result="blur"/>
      <feBlend in="SourceGraphic" in2="blur" mode="normal"/>
    </filter>
  </defs>
</svg>
