<svg width="1200" height="720" viewBox="0 0 1200 720" fill="none" xmlns="http://www.w3.org/2000/svg">
  <rect width="1200" height="720" fill="url(#paint0_radial)"/>
  <g opacity="0.65">
    <ellipse cx="598" cy="598" rx="620" ry="240" fill="url(#paint1_radial)"/>
    <ellipse cx="185" cy="620" rx="320" ry="120" fill="url(#paint2_radial)"/>
    <ellipse cx="1015" cy="640" rx="300" ry="110" fill="url(#paint3_radial)"/>
  </g>
  <g>
    <path d="M0 560C120 520 230 540 360 570C490 600 640 640 820 600C960 570 1080 560 1200 600V720H0V560Z" fill="url(#paint4_linear)"/>
    <path d="M0 600C140 560 280 610 430 640C580 670 750 660 920 610C1015 580 1100 580 1200 610V720H0V600Z" fill="url(#paint5_linear)" opacity="0.8"/>
    <path d="M0 640C160 600 340 650 520 670C700 690 900 660 1200 620V720H0V640Z" fill="url(#paint6_linear)" opacity="0.65"/>
  </g>
  <g opacity="0.6">
    <circle cx="220" cy="420" r="90" fill="#7ED957"/>
    <circle cx="240" cy="410" r="70" fill="#9BE27E"/>
    <circle cx="320" cy="440" r="90" fill="#7ED957"/>
    <circle cx="300" cy="430" r="70" fill="#9BE27E"/>
    <circle cx="280" cy="460" r="75" fill="#6BCB6B"/>
  </g>
  <g opacity="0.65">
    <circle cx="910" cy="430" r="85" fill="#6BCB6B"/>
    <circle cx="960" cy="430" r="70" fill="#8CDA86"/>
    <circle cx="1000" cy="460" r="90" fill="#6BCB6B"/>
    <circle cx="930" cy="470" r="80" fill="#8CDA86"/>
  </g>
  <g opacity="0.5">
    <circle cx="540" cy="410" r="75" fill="#6BCB6B"/>
    <circle cx="600" cy="420" r="85" fill="#8CDA86"/>
    <circle cx="660" cy="410" r="70" fill="#6BCB6B"/>
  </g>
  <rect x="120" y="520" width="220" height="50" rx="20" fill="#FCDFA6"/>
  <rect x="260" y="530" width="240" height="50" rx="25" fill="#F8D28B"/>
  <rect x="400" y="500" width="380" height="60" rx="30" fill="#FCDFA6"/>
  <rect x="720" y="520" width="280" height="55" rx="28" fill="#F5C271"/>
  <rect x="980" y="540" width="160" height="45" rx="22" fill="#FCDFA6"/>
  <path d="M520 540C540 510 560 500 580 500C600 500 620 520 640 540H520Z" fill="#F6B96F"/>
  <path d="M640 540C660 510 680 500 700 500C720 500 740 520 760 540H640Z" fill="#F6C77F"/>
  <defs>
    <radialGradient id="paint0_radial" cx="0" cy="0" r="1" gradientUnits="userSpaceOnUse" gradientTransform="translate(600 120) rotate(90) scale(620 640)">
      <stop stop-color="#D1F1FF"/>
      <stop offset="0.45" stop-color="#F3FBFF"/>
      <stop offset="1" stop-color="#FFFFFF"/>
    </radialGradient>
    <radialGradient id="paint1_radial" cx="0" cy="0" r="1" gradientUnits="userSpaceOnUse" gradientTransform="translate(598 598) rotate(90) scale(240 620)">
      <stop offset="0.3" stop-color="#F9F0D4"/>
      <stop offset="1" stop-color="rgba(249, 240, 212, 0)"/>
    </radialGradient>
    <radialGradient id="paint2_radial" cx="0" cy="0" r="1" gradientUnits="userSpaceOnUse" gradientTransform="translate(185 620) rotate(90) scale(120 320)">
      <stop offset="0.3" stop-color="#F9F0D4"/>
      <stop offset="1" stop-color="rgba(249, 240, 212, 0)"/>
    </radialGradient>
    <radialGradient id="paint3_radial" cx="0" cy="0" r="1" gradientUnits="userSpaceOnUse" gradientTransform="translate(1015 640) rotate(90) scale(110 300)">
      <stop offset="0.3" stop-color="#F9F0D4"/>
      <stop offset="1" stop-color="rgba(249, 240, 212, 0)"/>
    </radialGradient>
    <linearGradient id="paint4_linear" x1="0" y1="560" x2="1200" y2="720" gradientUnits="userSpaceOnUse">
      <stop stop-color="#A1D884"/>
      <stop offset="1" stop-color="#7FCF6B"/>
    </linearGradient>
    <linearGradient id="paint5_linear" x1="0" y1="610" x2="1200" y2="650" gradientUnits="userSpaceOnUse">
      <stop stop-color="#B6E89B"/>
      <stop offset="1" stop-color="#8ED07A"/>
    </linearGradient>
    <linearGradient id="paint6_linear" x1="0" y1="640" x2="1200" y2="660" gradientUnits="userSpaceOnUse">
      <stop stop-color="#C5F1AE"/>
      <stop offset="1" stop-color="#A4D98C"/>
    </linearGradient>
  </defs>
</svg>
