<svg width="220" height="200" viewBox="0 0 220 200" fill="none" xmlns="http://www.w3.org/2000/svg">
  <rect width="220" height="200" rx="32" fill="url(#bg)"/>
  <g filter="url(#shadow)">
    <path d="M74 140C64 118 80 92 108 82C132 72 160 80 176 100C188 116 188 138 176 154C170 162 160 166 150 166C140 182 122 190 104 186C88 182 76 168 74 152V140Z" fill="url(#caps)"/>
    <path d="M104 160C102 148 108 138 118 134C132 128 150 134 156 150" stroke="#F2F9FF" stroke-width="16" stroke-linecap="round"/>
    <path d="M94 98C94 80 108 66 126 66C144 66 158 80 158 98" stroke="#6AB7FF" stroke-width="14" stroke-linecap="round"/>
  </g>
  <defs>
    <linearGradient id="bg" x1="110" y1="0" x2="110" y2="200" gradientUnits="userSpaceOnUse">
      <stop stop-color="#F0F8FF"/>
      <stop offset="1" stop-color="#E0F2FF"/>
    </linearGradient>
    <linearGradient id="caps" x1="74" y1="82" x2="186" y2="186" gradientUnits="userSpaceOnUse">
      <stop stop-color="#B7D4FF"/>
      <stop offset="1" stop-color="#6CA8FF"/>
    </linearGradient>
    <filter id="shadow" x="40" y="40" width="170" height="156" filterUnits="userSpaceOnUse" color-interpolation-filters="sRGB">
      <feOffset dy="6"/>
      <feGaussianBlur stdDeviation="10" result="blur"/>
      <feBlend in="SourceGraphic" in2="blur" mode="normal"/>
    </filter>
  </defs>
</svg>
