<svg width="220" height="200" viewBox="0 0 220 200" fill="none" xmlns="http://www.w3.org/2000/svg">
  <rect width="220" height="200" rx="32" fill="url(#bg)"/>
  <g filter="url(#shadow)">
    <path d="M120 152C110 160 96 162 84 156C62 146 56 118 70 96C82 78 106 72 124 82C134 88 140 98 142 110C158 106 174 112 182 126C192 142 188 164 172 174C156 184 134 180 124 166C122 162 122 160 120 156V152Z" fill="url(#acorn)"/>
    <path d="M80 98C80 78 96 62 118 62C140 62 158 78 158 98" stroke="#9D703E" stroke-width="16" stroke-linecap="round"/>
    <path d="M104 72C110 60 122 54 134 58C142 60 148 66 152 72" stroke="#9D703E" stroke-width="12" stroke-linecap="round"/>
  </g>
  <defs>
    <linearGradient id="bg" x1="110" y1="0" x2="110" y2="200" gradientUnits="userSpaceOnUse">
      <stop stop-color="#FFF8ED"/>
      <stop offset="1" stop-color="#FFEED9"/>
    </linearGradient>
    <linearGradient id="acorn" x1="72" y1="82" x2="186" y2="178" gradientUnits="userSpaceOnUse">
      <stop stop-color="#D8A36B"/>
      <stop offset="1" stop-color="#B57336"/>
    </linearGradient>
    <filter id="shadow" x="40" y="36" width="172" height="160" filterUnits="userSpaceOnUse" color-interpolation-filters="sRGB">
      <feOffset dy="6"/>
      <feGaussianBlur stdDeviation="10" result="blur"/>
      <feBlend in="SourceGraphic" in2="blur" mode="normal"/>
    </filter>
  </defs>
</svg>
