<svg width="220" height="200" viewBox="0 0 220 200" fill="none" xmlns="http://www.w3.org/2000/svg">
  <rect width="220" height="200" rx="32" fill="url(#bg)"/>
  <g filter="url(#shadow)">
    <path d="M108 150C96 134 90 118 90 104C90 86 102 74 118 74C134 74 146 86 146 104C146 118 140 134 128 150L118 164L108 150Z" fill="url(#carrot)"/>
    <path d="M82 86C84 70 100 58 118 58C136 58 152 70 154 86" stroke="#6BCB6B" stroke-width="14" stroke-linecap="round"/>
    <path d="M94 74C98 60 110 52 122 52C134 52 146 60 150 72" stroke="#6BCB6B" stroke-width="12" stroke-linecap="round"/>
  </g>
  <defs>
    <linearGradient id="bg" x1="110" y1="0" x2="110" y2="200" gradientUnits="userSpaceOnUse">
      <stop stop-color="#FFF9EC"/>
      <stop offset="1" stop-color="#FFEFD1"/>
    </linearGradient>
    <linearGradient id="carrot" x1="90" y1="74" x2="146" y2="164" gradientUnits="userSpaceOnUse">
      <stop stop-color="#FFA24C"/>
      <stop offset="1" stop-color="#FF7A3D"/>
    </linearGradient>
    <filter id="shadow" x="60" y="40" width="140" height="140" filterUnits="userSpaceOnUse" color-interpolation-filters="sRGB">
      <feOffset dy="6"/>
      <feGaussianBlur stdDeviation="10" result="blur"/>
      <feBlend in="SourceGraphic" in2="blur" mode="normal"/>
    </filter>
  </defs>
</svg>
